<svg width="33" height="29" viewBox="0 0 33 29" fill="none" xmlns="http://www.w3.org/2000/svg">
<path d="M29.4643 0.0625H3.53571C2.59798 0.0625 1.69866 0.388448 1.03559 0.968638C0.372512 1.54883 0 2.33574 0 3.15625L0 25.8438C0 26.6643 0.372512 27.4512 1.03559 28.0314C1.69866 28.6116 2.59798 28.9375 3.53571 28.9375H13.6456V19.1206H9.00502V14.5H13.6456V10.9783C13.6456 6.97252 16.3711 4.75984 20.5454 4.75984C22.5446 4.75984 24.6351 5.0718 24.6351 5.0718V9.00344H22.3317C20.0622 9.00344 19.3544 10.2358 19.3544 11.4997V14.5H24.4207L23.6105 19.1206H19.3544V28.9375H29.4643C30.402 28.9375 31.3013 28.6116 31.9644 28.0314C32.6275 27.4512 33 26.6643 33 25.8438V3.15625C33 2.33574 32.6275 1.54883 31.9644 0.968638C31.3013 0.388448 30.402 0.0625 29.4643 0.0625Z" fill="black"/>
</svg>
