<svg width="33" height="33" viewBox="0 0 33 33" fill="none" xmlns="http://www.w3.org/2000/svg">
<path d="M16.3389 10.9977C13.3772 10.9977 10.9603 13.4702 10.9603 16.5C10.9603 19.5298 13.3772 22.0023 16.3389 22.0023C19.3006 22.0023 21.7176 19.5298 21.7176 16.5C21.7176 13.4702 19.3006 10.9977 16.3389 10.9977ZM32.4709 16.5C32.4709 14.2215 32.491 11.9636 32.3659 9.68915C32.2409 7.04736 31.6518 4.70278 29.7634 2.77097C27.871 0.835041 25.5831 0.236512 23.0007 0.10855C20.7734 -0.0194112 18.5662 0.00122779 16.343 0.00122779C14.1156 0.00122779 11.9085 -0.0194112 9.68521 0.10855C7.10281 0.236512 4.81093 0.839169 2.92255 2.77097C1.03014 4.70691 0.445062 7.04736 0.319977 9.68915C0.194892 11.9677 0.215067 14.2256 0.215067 16.5C0.215067 18.7744 0.194892 21.0364 0.319977 23.3109C0.445062 25.9526 1.03417 28.2972 2.92255 30.229C4.81497 32.165 7.10281 32.7635 9.68521 32.8914C11.9125 33.0194 14.1197 32.9988 16.343 32.9988C18.5703 32.9988 20.7774 33.0194 23.0007 32.8914C25.5831 32.7635 27.875 32.1608 29.7634 30.229C31.6558 28.2931 32.2409 25.9526 32.3659 23.3109C32.4951 21.0364 32.4709 18.7785 32.4709 16.5ZM16.3389 24.9661C11.7592 24.9661 8.06314 21.185 8.06314 16.5C8.06314 11.815 11.7592 8.0339 16.3389 8.0339C20.9186 8.0339 24.6147 11.815 24.6147 16.5C24.6147 21.185 20.9186 24.9661 16.3389 24.9661ZM24.9537 9.66438C23.8844 9.66438 23.0209 8.78103 23.0209 7.68717C23.0209 6.59331 23.8844 5.70996 24.9537 5.70996C26.0229 5.70996 26.8864 6.59331 26.8864 7.68717C26.8867 7.94691 26.837 8.20417 26.7399 8.4442C26.6429 8.68424 26.5006 8.90233 26.321 9.086C26.1415 9.26966 25.9283 9.41529 25.6937 9.51454C25.459 9.61379 25.2076 9.66471 24.9537 9.66438Z" fill="black"/>
</svg>
